:SAMPLES-PER-SECOND 30
:FULLY-SPECIFIED
:DEGREES
1
root  34.85907006 36.52239822 -14.82798509 8.361904144 -1.914376855 3.222643852
lowerback  -8.407990456 0.1055089831 -0.004507284146
upperback  -3.144249916 0.5402200222 -3.17076993
thorax  1.489609957 0.3900339901 -3.222569942
lowerneck  -14.70839977 -0.2682119906 -0.1300889999
upperneck  15.71490002 -1.13616991 6.002019882
head  7.290929794 0.1425500214 1.883370042
lclavicle  0 -4.497500157e-015 -2.743230041e-014
lhumerus  -44.84350204 26.20809174 69.49679565
lradius  -0.009002206847 -6.507048965e-006 30.12895966
lwrist  4.824992743e-007 -3.790274832e-007 -26.37917519
lhand  -4.413167194e-031 -36.85710144 -10.38479996
lfingers  90 7.125020027 -90
lthumb  94.73460718 -25.22747468 100.9968456
rclavicle  0 -4.497500157e-015 -2.743230041e-014
rhumerus  -48.5141983 -32.85409927 -62.38330078
rradius  -5.16745672e-007 2.214343908e-008 34.84790039
rwrist  -3.062178075e-005 0.020962568 -142.5390015
rhand  -3.535513218e-031 -2.854949951 -7.66711998
rfingers  -90 -7.125020027 -90
rthumb  -86.61206786 -7.981945253 -66.91035963
rfemur  -11.52910233 15.73858738 13.72104263
rtibia  -1.061454058 0.06889900565 20.61664963
rfoot  -0.01624664664 -20.12590027 -38.27007294
rtoes  4.138733712 19.58426543 -102.1819001
lfemur  -8.082387924 -17.72229385 -19.5580883
ltibia  2.326161861 -0.0731504783 14.77232456
lfoot  0.5702134967 -25.3288517 36.07090759
ltoes  -8.724062091 -18.06748907 -116.3255407
2
root  34.85997117 36.52299295 -14.83272042 8.351064682 -1.923527837 3.221792221
lowerback  -8.431819916 0.09074067324 -0.01450215559
upperback  -3.137099981 0.521427989 -3.17076993
thorax  1.508990049 0.3900339901 -3.211649895
lowerneck  -14.72710037 -0.2682119906 -0.1300889999
upperneck  15.72099972 -1.132460117 6.021190166
head  7.296239853 0.1425500214 1.883370042
lclavicle  0 -4.497500157e-015 -2.743230041e-014
lhumerus  -44.83610153 26.28000069 69.45929718
lradius  -0.009002206847 -6.507048965e-006 30.12240219
lwrist  4.824992743e-007 -3.790274832e-007 -26.3627739
lhand  -4.413426916e-031 -36.86159897 -10.43980026
lfingers  90 7.125020027 -90
lthumb  94.74829025 -25.28130286 101.0065857
rclavicle  0 -4.497500157e-015 -2.743230041e-014
rhumerus  -48.39020157 -32.60820007 -62.52389908
rradius  -5.16745672e-007 2.214343908e-008 34.97529984
rwrist  -3.062178075e-005 0.020962568 -142.9909973
rhand  -1.767945559e-031 -2.975209951 -7.610770226
rfingers  -90 -7.125020027 -90
rthumb  -86.61159503 -8.027599693 -67.02436996
rfemur  -11.52910233 15.71598911 13.72218704
rtibia  -1.064965844 0.06889900565 20.62351418
rfoot  -0.01624664664 -20.12590027 -38.23732758
rtoes  4.186268932 19.57453898 -102.3237484
lfemur  -8.111252785 -17.72083092 -19.54574966
ltibia  2.290255308 -0.07926151901 14.82198334
lfoot  0.5629879832 -25.34807587 36.06306839
ltoes  -8.726770532 -18.0662148 -116.3342741
3
root  34.86134086 36.52193565 -14.83582774 8.335969925 -1.947238564 3.23503089
lowerback  -8.459751129 0.1039489657 0.008398296311
upperback  -3.125530005 0.5372880101 -3.17076993
thorax  1.537430048 0.3900339901 -3.226429939
lowerneck  -14.76099968 -0.27996701 -0.1218980029
upperneck  15.73789978 -1.151489973 6.018519878
head  7.308350086 0.1346179843 1.883370042
lclavicle  0 -4.497500157e-015 -2.743230041e-014
lhumerus  -44.79219818 26.27470016 69.47260284
lradius  -0.009002206847 -6.507048965e-006 30.11247063
lwrist  4.824992743e-007 -3.790274832e-007 -26.36187363
lhand  -4.412260932e-031 -36.84140015 -10.50790024
lfingers  90 7.125020027 -90
lthumb  94.7532762 -25.34888405 100.9911416
rclavicle  0 -4.497500157e-015 -2.743230041e-014
rhumerus  -48.2038002 -32.21139908 -62.81190109
rradius  -5.16745672e-007 2.214343908e-008 35.16320038
rwrist  -3.062178075e-005 0.020962568 -143.3809967
rhand  -1.767802125e-031 -2.884380102 -7.58355999
rfingers  -90 -7.125020027 -90
rthumb  -86.58434033 -8.057315508 -66.93446639
rfemur  -11.53433037 15.74392319 13.7094965
rtibia  -1.076824069 0.06889900565 20.64808273
rfoot  -0.02034790628 -20.11540985 -38.23405075
rtoes  4.133481781 19.5853329 -102.1662321
lfemur  -8.101478577 -17.84337997 -19.5714798
ltibia  2.279085159 -0.1496737003 14.83609867
lfoot  0.5506789684 -25.21181107 36.12628174
ltoes  -8.730316873 -18.06454556 -116.3457101
4
root  34.86119969 36.51737003 -14.83707879 8.314553261 -1.939402819 3.246296883
lowerback  -8.484470367 0.1124630049 0.04238417372
upperback  -3.119879961 0.5467870235 -3.17076993
thorax  1.557739973 0.3900339901 -3.254750013
lowerneck  -14.78789997 -0.3068870008 -0.1437640041
upperneck  15.7493 -1.189399958 6.048369884
head  7.318419933 0.1189900115 1.893130064
lclavicle  0 -4.497500157e-015 -2.743230041e-014
lhumerus  -44.75279999 26.25239944 69.48899841
lradius  -0.009002206847 -6.507048965e-006 30.12503052
lwrist  4.824992743e-007 -3.790274832e-007 -26.3572998
lhand  -4.412474444e-031 -36.8451004 -10.40429974
lfingers  90 7.125020027 -90
lthumb  94.73315096 -25.24698361 100.9857853
rclavicle  0 -4.497500157e-015 -2.743230041e-014
rhumerus  -48.04980087 -31.93510246 -63.02180099
rradius  -5.16745672e-007 2.214343908e-008 35.36230087
rwrist  -3.062178075e-005 0.020962568 -143.3549957
rhand  -1.767773088e-031 -2.865639925 -7.639100075
rfingers  -90 -7.125020027 -90
rthumb  -86.60290143 -8.007207182 -66.91926836
rfemur  -11.51995945 15.75179195 13.70688534
rtibia  -1.08584249 0.06889900565 20.66521072
rfoot  -0.03659502789 -20.13148117 -38.26108551
rtoes  4.116659007 19.5887426 -102.1160506
lfemur  -8.030179024 -17.76371574 -19.6017704
ltibia  2.329662323 -0.09607496113 14.74964333
lfoot  0.5809784532 -25.29231644 36.15839386
ltoes  -8.709355485 -18.07439955 -116.2781298
5
root  34.86127178 36.51204447 -14.83961991 8.273765564 -1.935003757 3.24925518
lowerback  -8.523650169 0.1135925055 0.04611605406
upperback  -3.127170086 0.5487706065 -3.17076993
thorax  1.571720004 0.3900339901 -3.255789995
lowerneck  -14.80729961 -0.3165059984 -0.1546850055
upperneck  15.77270031 -1.20389998 6.066569805
head  7.330190182 0.1144140139 1.899839997
lclavicle  0 -4.497500157e-015 -2.743230041e-014
lhumerus  -44.72539902 26.27750015 69.46980286
lradius  -0.009002206847 -6.507048965e-006 30.11821747
lwrist  4.824992743e-007 -3.790274832e-007 -26.37649918
lhand  -4.416052048e-031 -36.9070015 -10.66629982
lfingers  90 7.125020027 -90
lthumb  94.81749295 -25.50201483 101.0757362
rclavicle  0 -4.497500157e-015 -2.743230041e-014
rhumerus  -47.92969894 -31.76239967 -63.1446991
rradius  -5.16745672e-007 2.214343908e-008 35.47660065
rwrist  -3.062178075e-005 0.020962568 -143.3379974
rhand  -1.767598079e-031 -2.749979973 -7.59059
rfingers  -90 -7.125020027 -90
rthumb  -86.56258015 -8.057789603 -66.80391846
rfemur  -11.48744583 15.73871231 13.71098232
rtibia  -1.090714097 0.06775144488 20.67581749
rfoot  -0.04400260001 -20.14375305 -38.26278305
rtoes  4.117511011 19.58857026 -102.1185919
lfemur  -7.954671383 -17.7671833 -19.63595581
ltibia  2.355504513 -0.0968336314 14.70573139
lfoot  0.5781546831 -25.28229713 36.16710663
ltoes  -8.695965129 -18.08067879 -116.2349774
6
root  34.86154511 36.51903408 -14.84305314 8.2450037 -1.930963874 3.250275373
lowerback  -8.540089607 0.1115113422 0.04504453391
upperback  -3.139919996 0.5476113558 -3.17076993
thorax  1.567630053 0.3900339901 -3.253571272
lowerneck  -14.80589962 -0.3356150091 -0.1719309986
upperneck  15.77670002 -1.225209951 6.055920124
head  7.331659317 0.1019838005 1.897248983
lclavicle  0 -4.497500157e-015 -2.743230041e-014
lhumerus  -44.74160004 26.39679909 69.41999817
lradius  -0.009002206847 -6.507048965e-006 30.0991993
lwrist  4.824992743e-007 -3.790274832e-007 -26.47599983
lhand  -4.41628348e-031 -36.9109993 -10.7159996
lfingers  90 7.125020027 -90
lthumb  94.82991905 -25.55066683 101.0844902
rclavicle  0 -4.497500157e-015 -2.743230041e-014
rhumerus  -47.86130142 -31.62360001 -63.21390152
rradius  -5.16745672e-007 2.214343908e-008 35.54240036
rwrist  -3.062178075e-005 0.020962568 -143.4909973
rhand  -1.767483896e-031 -2.671809912 -7.647109985
rfingers  -90 -7.125020027 -90
rthumb  -86.57081777 -8.00992263 -66.73093834
rfemur  -11.4618597 15.78884983 13.7264595
rtibia  -1.089898467 0.0945898965 20.68457603
rfoot  -0.04206229746 -20.09861755 -38.28800583
rtoes  4.127377617 19.5865718 -102.1480227
lfemur  -7.940176487 -17.83462334 -19.64170265
ltibia  2.338326931 -0.1458754838 14.73216724
lfoot  0.5576053858 -25.19347572 36.16869354
ltoes  -8.660381448 -18.09730638 -116.1203739
